<?xml version="1.0" standalone="no"?>
<!DOCTYPE svg PUBLIC "-//W3C//DTD SVG 20010904//EN"
 "http://www.w3.org/TR/2001/REC-SVG-20010904/DTD/svg10.dtd">
<svg version="1.0" xmlns="http://www.w3.org/2000/svg"
 width="2048.000000pt" height="2048.000000pt" viewBox="0 0 2048.000000 2048.000000"
 preserveAspectRatio="xMidYMid meet">

<g transform="translate(0.000000,2048.000000) scale(0.100000,-0.100000)"
fill="#000000" stroke="none">
<path d="M2460 10150 l0 -2100 304 0 305 0 20 26 c21 27 21 31 21 945 l0 919
194 0 194 0 65 88 c154 206 394 419 601 534 l51 28 -553 0 -552 0 2 503 3 502
1283 3 1282 2 0 325 0 325 -1610 0 -1610 0 0 -2100z"/>
<path d="M16580 10320 l0 -760 120 0 119 0 3 338 3 337 27 51 c64 122 206 179
344 139 71 -20 146 -90 163 -152 7 -23 11 -168 11 -376 l0 -338 123 3 122 3 0
360 c0 386 -4 425 -57 534 -105 218 -488 268 -683 89 l-55 -50 0 291 0 291
-120 0 -120 0 0 -760z"/>
<path d="M11239 11002 l-126 -3 18 -57 c10 -31 49 -160 87 -287 39 -126 108
-354 155 -505 46 -151 106 -346 133 -433 l48 -158 125 3 125 3 77 240 c43 132
116 362 163 510 100 311 95 299 100 294 5 -5 207 -633 281 -874 l52 -170 124
-3 124 -2 43 137 c23 76 85 278 137 448 51 171 119 393 151 495 49 159 104
349 104 357 0 2 -54 3 -119 3 l-120 0 -14 -52 c-9 -29 -65 -224 -125 -433 -61
-209 -123 -427 -138 -485 -28 -108 -31 -116 -38 -109 -4 4 -208 636 -301 932
l-47 147 -111 0 -112 0 -48 -158 c-26 -86 -90 -290 -142 -452 -52 -162 -106
-335 -121 -384 -21 -68 -29 -85 -35 -70 -4 10 -46 152 -93 314 -122 418 -221
749 -227 752 -2 2 -61 2 -130 0z"/>
<path d="M7350 10280 l0 -720 545 0 545 0 0 105 0 105 -420 0 -420 0 0 205 0
205 268 0 c148 0 310 3 360 6 l91 7 3 98 3 99 -363 0 -362 0 2 198 3 197 170
0 c94 0 275 1 403 3 l232 2 0 105 0 105 -530 0 -530 0 0 -720z"/>
<path d="M14630 10775 l0 -135 -59 0 c-92 0 -91 2 -91 -106 l0 -94 74 0 75 0
3 -322 3 -323 29 -63 c64 -139 209 -209 379 -182 84 13 182 54 174 72 -3 7
-20 45 -37 84 l-32 72 -31 -16 c-17 -9 -54 -17 -82 -19 -63 -5 -111 19 -140
67 -19 33 -20 52 -20 333 l-1 297 138 0 138 0 0 100 0 100 -140 0 -140 0 0
135 0 135 -120 0 -120 0 0 -135z"/>
<path d="M5535 10753 c-904 -35 -1686 -498 -2011 -1191 -123 -263 -181 -558
-164 -842 5 -92 6 -94 21 -70 205 320 333 488 527 696 184 197 457 431 642
550 164 106 523 294 536 281 3 -2 -30 -26 -73 -52 -505 -311 -972 -789 -1289
-1321 -83 -139 -179 -332 -170 -342 14 -13 122 -21 302 -21 151 -1 218 3 315
20 329 56 584 167 860 374 465 348 827 963 1004 1707 20 87 35 164 32 171 -8
22 -343 47 -532 40z"/>
<path d="M9060 10644 c-257 -55 -430 -277 -430 -549 0 -323 242 -555 579 -555
159 0 284 46 377 137 80 79 82 85 31 118 -23 15 -60 43 -83 61 l-41 33 -39
-40 c-21 -23 -61 -53 -89 -67 -45 -24 -61 -27 -150 -27 -119 0 -169 18 -237
87 -138 138 -137 379 4 515 125 121 340 123 470 4 l53 -48 77 59 c43 32 78 63
78 68 0 5 -27 37 -59 70 -123 126 -336 179 -541 134z"/>
<path d="M10261 10644 c-265 -57 -434 -272 -434 -549 1 -186 66 -332 191 -427
122 -94 255 -133 417 -125 162 9 295 67 394 173 204 217 201 571 -5 781 -131
134 -355 193 -563 147z m281 -227 c251 -116 259 -506 14 -635 -45 -24 -62 -27
-151 -27 -90 0 -105 3 -152 27 -101 54 -165 148 -181 266 -32 231 125 412 345
398 48 -3 91 -13 125 -29z"/>
<path d="M13710 10650 c-97 -9 -215 -42 -293 -81 -34 -17 -63 -32 -65 -34 -2
-2 58 -165 65 -174 2 -3 33 10 69 28 173 86 431 73 501 -25 23 -32 43 -95 43
-135 l0 -27 -232 -4 c-261 -5 -319 -17 -409 -83 -71 -51 -104 -125 -104 -235
0 -73 4 -93 28 -142 33 -68 80 -111 162 -149 84 -39 186 -54 286 -40 97 13
167 42 236 98 l53 43 0 -65 0 -65 111 0 110 0 -3 388 -3 387 -26 67 c-49 127
-135 201 -268 232 -88 20 -170 25 -261 16z m320 -663 c0 -77 -24 -147 -62
-184 -103 -100 -326 -110 -406 -19 -71 81 -39 208 63 244 17 6 114 11 218 11
l187 1 0 -53z"/>
<path d="M15776 10644 c-203 -40 -369 -186 -428 -377 -31 -99 -31 -244 0 -342
56 -183 200 -315 400 -366 189 -48 414 2 531 119 83 83 83 81 -7 150 l-78 59
-52 -48 c-67 -62 -139 -89 -236 -89 -138 0 -237 58 -296 174 -31 61 -35 79
-38 160 -3 74 0 102 18 148 60 162 245 253 414 204 70 -21 97 -37 153 -89 38
-37 44 -39 62 -26 85 61 140 105 141 112 0 5 -29 38 -64 73 -127 127 -319 178
-520 138z"/>
<path d="M5160 8673 c-138 -118 -376 -254 -575 -328 -335 -125 -763 -165
-1072 -101 l-62 13 -34 -81 c-19 -44 -37 -91 -41 -103 l-7 -23 1155 0 1156 0
0 340 0 340 -227 -1 -228 0 -65 -56z"/>
</g>
</svg>
